HIERARCHY
ROOT mid_hip
{
    OFFSET 0.0 0.0 0.0
    CHANNELS 6 Xposition Yposition Zposition Zrotation Xrotation Yrotation
    JOINT left_hip
    {
        OFFSET 0.052107493005852816 0.0 0.0
        CHANNELS 3 Zrotation Xrotation Yrotation
        JOINT left_knee
        {
            OFFSET 0.0 0.0 -0.3580183675340307
            CHANNELS 3 Zrotation Xrotation Yrotation
            JOINT left_ankle
            {
                OFFSET 0.0 0.0 -0.39042564824872394
                CHANNELS 3 Zrotation Xrotation Yrotation
                JOINT left_foot_index
                {
                    OFFSET 0.0 -0.13779021385769952 0.0
                    CHANNELS 3 Zrotation Xrotation Yrotation
                    End Site
                    {
                        OFFSET 0.0 -0.0551160855430798 0.0
                    }
                }
            }
        }
    }
    JOINT spine
    {
        OFFSET 0.0 0.0 0.12353791427585101
        CHANNELS 3 Zrotation Xrotation Yrotation
        JOINT mid_shoulder
        {
            OFFSET 0.0 0.0 0.3706137404650476
            CHANNELS 3 Zrotation Xrotation Yrotation
            JOINT left_shoulder
            {
                OFFSET 0.16577621935375614 0.0 0.0
                CHANNELS 3 Zrotation Xrotation Yrotation
                JOINT left_elbow
                {
                    OFFSET 0.25817205166865476 0.0 0.0
                    CHANNELS 3 Zrotation Xrotation Yrotation
                    JOINT left_wrist
                    {
                        OFFSET 0.24384774574484952 0.0 0.0
                        CHANNELS 3 Zrotation Xrotation Yrotation
                        End Site
                        {
                            OFFSET 0.09753909829793983 0.0 0.0
                        }
                    }
                }
            }
            JOINT right_shoulder
            {
                OFFSET -0.16577621935375614 0.0 0.0
                CHANNELS 3 Zrotation Xrotation Yrotation
                JOINT right_elbow
                {
                    OFFSET -0.25817205166865476 0.0 0.0
                    CHANNELS 3 Zrotation Xrotation Yrotation
                    JOINT right_wrist
                    {
                        OFFSET -0.24384774574484952 0.0 0.0
                        CHANNELS 3 Zrotation Xrotation Yrotation
                        End Site
                        {
                            OFFSET -0.09753909829793983 0.0 0.0
                        }
                    }
                }
            }
            End Site
            {
                OFFSET 0.0 0.0 0.14824549618601904
            }
        }
    }
    JOINT right_hip
    {
        OFFSET -0.052107493005852816 0.0 0.0
        CHANNELS 3 Zrotation Xrotation Yrotation
        JOINT right_knee
        {
            OFFSET 0.0 0.0 -0.3580183675340307
            CHANNELS 3 Zrotation Xrotation Yrotation
            JOINT right_ankle
            {
                OFFSET 0.0 0.0 -0.39042564824872394
                CHANNELS 3 Zrotation Xrotation Yrotation
                JOINT right_foot_index
                {
                    OFFSET 0.0 -0.13779021385769952 0.0
                    CHANNELS 3 Zrotation Xrotation Yrotation
                    End Site
                    {
                        OFFSET 0.0 -0.0551160855430798 0.0
                    }
                }
            }
        }
    }
}
MOTION
Frames: 10
Frame Time: 0.03333333333333333
-0.20690187811851501 -0.29488489031791687 0.4602819085121155 -78.40718196092153 81.42894022120717 82.01451042028734 -1.7090901969531882 -11.74909304097384 -12.860997525483151 -2.413051003141769 28.015880499579566 12.32862952699977 15.819486383277779 -1.7413691305358858 -8.949443075843017e-16 0.0 0.0 0.0 7.66217938476686e-07 5.343179051895262e-06 -4.129895333598415e-06 2.260128277627066 1.0147807545343162e-14 3.962953998520068e-16 16.35366306097099 -5.085799669343351 75.72623315274744 -94.19842562435022 -8.283893381082928e-15 -4.24202129309689e-15 1.590277340731758e-15 -1.189685681896332e-31 -8.572588789882134e-15 -7.9265087329946065 -12.827417500466296 -62.36804103969802 78.90222789215244 -2.2000341326047395e-15 -6.4275789912293604e-15 0.0 0.0 3.1805546814635168e-15 -0.5258666943079916 -3.6619430872197336 0.9755959073212684 2.2633647154979686 13.772187866435702 -9.11776451720054 -19.021237124154833 0.6627073413733109 3.006819224507927e-15 1.5902773407317584e-15 0.0 0.0
-0.21001160144805908 -0.2958012521266937 0.4595036208629608 -76.97665393692454 81.0890399233447 80.38204576700156 -1.780486152115323 -11.860116278761467 -12.582573262791973 -2.292312168010647 29.88255341862213 13.070123132128275 16.563377545199497 -2.7957141336431 -1.7414385213519656e-15 7.951386703658792e-16 0.0 0.0 2.3677073550581565e-08 1.600346158814033e-07 -2.6003772305983784e-07 2.41321365872382 -9.245623359066179e-15 -4.093962631355495e-18 15.931106890831511 -5.809111822146456 76.4035360120365 -92.49771332965146 1.0016872080244647e-15 5.645652221228608e-15 1.3448620751871577e-32 1.5902773407317588e-15 -9.690752545084154e-16 -6.535111950088787 -12.766704820585993 -62.85344369550138 76.9084107724223 -1.4871178148377943e-14 -8.497645253292926e-15 0.0 0.0 -7.951386703658792e-16 -0.4616410562046321 -3.1171441271544658 0.6275844724951617 2.170270678737451 13.365346912108086 -8.504325660552428 -18.599256245948535 1.1558519874209683 4.225033881821855e-16 0.0 0.0 0.0
-0.21173778176307678 -0.29668235778808594 0.45815303921699524 -75.4388662094809 80.7274303204402 78.62180754393141 -1.6993351207749388 -11.254359946735844 -11.898834529304697 -1.9373341033522866 30.726465928673548 13.407299919654502 16.88195125897453 -3.332023228775267 3.3850618383080703e-15 0.0 0.0 0.0 5.147523562894286e-07 3.454149271819377e-06 7.5094670890074905e-06 2.6603368810985226 -5.6389949650321165e-15 1.3093741066008724e-16 15.79493701865038 -5.6359533080542885 77.72286216644895 -89.76842042905942 -8.405295629775822e-15 1.4073213742721998e-14 1.590277340731758e-15 -1.1758922247149251e-31 -8.473196456086399e-15 -5.549620648429419 -12.377611250122118 -63.81707649645169 73.4181502446832 -1.0769652530999604e-14 -1.577403692181259e-14 0.0 0.0 -2.3854160110976376e-15 -0.36898562739106977 -2.4744616091166742 0.7443376934107068 2.136209964971893 12.921436347888806 -8.40813703345432 -18.173806880480853 1.5127379587436645 4.623354850222354e-15 -1.5902773407317584e-15 3.975693351829396e-16 5.517382872562698e-33
-0.213311105966568 -0.2972962260246277 0.4542835056781769 -72.1820933170859 80.47365916949236 75.29973896072799 -1.3523622837898002 -9.24580836902868 -11.329602796931656 -1.668367591315289 29.292253003340274 13.598364943318268 16.83763022613769 -1.535780703447793 3.3556966896485525e-15 -7.951386703658792e-16 0.0 0.0 4.84417205911507e-07 3.3412103622773783e-06 5.7259800271012505e-06 2.6444750240382855 -1.780185929745221e-15 -1.7484491572476558e-15 16.05078287073284 -4.564118071382073 79.39254254458234 -85.42836439625282 -3.325953467824943e-15 1.2581508781094607e-15 0.0 0.0 4.969616689786745e-16 -4.973296665843086 -11.550068627709225 -65.30808050205364 68.04376661889378 5.272239701433649e-15 -3.559101130586879e-15 -4.4139062980501586e-32 7.951386703658792e-16 6.3611093629270335e-15 -0.16043679558577434 -1.106455901716225 0.7565967962929057 1.933538213263309 12.01582506674465 -8.294657687220523 -17.945272928339325 1.8032369544724776 2.5357602603278048e-15 1.5902773407317584e-15 0.0 0.0
-0.21548394858837128 -0.2961917519569397 0.4524972438812256 -71.0537472135135 79.88327721229889 74.32582280894405 -0.9592053890363058 -6.781674517591076 -11.659295835222395 -1.6931497788006464 25.221363904808694 14.422419239373603 19.39668928211588 -1.1712723513589478 -1.9634088307039656e-15 0.0 0.0 0.0 6.908793778319986e-07 4.907766968696964e-06 -1.4848674906790108e-06 2.7908932502632147 -9.430425468130444e-15 1.6216302119209493e-15 17.769055746911693 -3.3874655136538894 81.28518007575711 -79.17124753557589 -3.854083447708278e-15 -1.6083567118735176e-14 0.0 0.0 2.5096564283423063e-15 -4.921296952477919 -10.875821208548757 -67.3786146711105 60.790806059932606 6.5787609456401735e-15 1.0429522922903407e-14 1.5902773407317584e-15 1.1034765745125397e-32 7.951386703658792e-16 -0.09393732169916276 -0.6672756991121422 0.46785391171804264 1.8411005197628643 12.158515827287545 -8.21187557359358 -17.544289174263767 1.239330925210611 -4.970779494754065e-16 -1.5902773407317584e-15 0.0 0.0
-0.2166839987039566 -0.2951822876930237 0.44911855459213257 -68.5111472943077 79.86923993328307 71.95664181605214 -0.5038833590740527 -3.6674107167595285 -12.008216161990838 -1.5809351084350138 20.68214246089361 14.799322569957202 19.688805062844416 -1.6794805554075656 1.19322058871762e-15 0.0 0.0 0.0 -1.1933731909362315e-06 -8.697956159622697e-06 -3.8105843132541185e-06 2.049094965059798 1.3486908355282493e-15 3.735134142226832e-16 21.225963113109483 -1.6269968849769856 82.68418874746868 -71.57813563209943 -4.8600027826489984e-15 1.2179948700339235e-14 0.0 0.0 -2.9817700138720468e-15 -6.096795134482841 -9.871469445604097 -69.79041798692738 52.17313308775582 1.0660108711685117e-14 9.780491073884897e-16 1.793149433582877e-32 -3.975693351829396e-16 5.168401357378215e-15 -0.01251046829977094 -0.09129374035286789 0.2536945143080141 1.7913443511217422 12.43913236131485 -8.208749279154988 -17.65397351536541 0.5672558329674562 -3.4789021816600043e-16 -1.5902773407317584e-15 0.0 0.0
-0.2161826491355896 -0.2950121760368347 0.44602692127227783 -65.89148032294858 80.19265361164187 69.36159019589577 -0.22761985674062005 -1.6339010245506282 -12.073936703749467 -1.3298844370455458 17.767586160077773 14.969582948467705 19.293468516894755 -1.6386336612836108 -1.3920619420184458e-15 0.0 0.0 0.0 -5.843659159979935e-07 -4.196174060150201e-06 -3.015420647698027e-06 1.0726614858768695 6.845513916401052e-16 -1.1991683549671465e-15 27.05284763634637 -0.22812992081047795 83.39061944574338 -61.84187801892788 2.188363924025796e-15 8.725737102976361e-15 0.0 0.0 -7.951386703658794e-16 -10.238261915026545 -8.487810725932494 -72.33572187818787 43.60336801819551 -5.463113222914785e-15 1.417476642767733e-14 3.1805546814635176e-15 -3.1805546814635176e-15 7.951386703658796e-16 -0.006147283403270616 -0.04426737986509092 0.15215004845592475 1.938172504470562 13.39967834412129 -8.065907340561637 -18.244754923357945 -0.14067852322036475 -2.950718803782504e-16 0.0 0.0 0.0
-0.21565815806388855 -0.29601889848709106 0.44260287284851074 -63.164258382513104 80.56899280922849 66.55239383996586 -0.044530993958658595 -0.3101565386642304 -11.496996534900285 -0.972483863265714 16.278917226145055 13.994934286698077 18.453424234764157 -0.8950000911457476 6.212778825154327e-16 0.0 0.0 0.0 1.9406694636108258e-07 1.351644799910723e-06 -9.125918107068455e-06 0.17706777107386068 -3.3787209876928363e-15 4.0279064000188594e-16 36.48065122618636 0.23956782161924878 82.23911686524917 -51.37012822159562 -2.9755097945587654e-15 -8.489626971588376e-15 0.0 0.0 -3.975693351829395e-15 -18.05825002518025 -6.378705784894487 -73.97487504115536 36.383838784819616 -4.014550282112987e-15 -2.028605973555615e-15 0.0 0.0 1.5902773407317584e-15 0.018628079627539172 0.12974974588426016 -0.13080168460304686 2.0359402499771764 14.117914589243739 -7.4365769154522585 -18.846124054109158 -0.6578827525742437 6.473352461616496e-15 -1.5902773407317584e-15 0.0 0.0
-0.21407516300678253 -0.2959529161453247 0.4415997266769409 -62.99876505006112 80.97391868903293 66.1626845405558 -0.003891130963310309 -0.027056739821988 -11.092923981716208 -0.801532616028393 15.5642042646231 13.75094426017416 18.11208948193333 -1.0575191801160446 2.7089025009271496e-15 8.827812596100317e-32 -6.3611093629270335e-15 1.5902773407317584e-15 1.2718270673418156e-06 8.80656982488867e-06 7.705591688630076e-06 0.011148974099175937 -2.9818473613076823e-15 -7.94848560796419e-16 50.80771448815439 -2.3889570330454992 80.00017832309635 -41.52146212031063 -7.075474189573844e-15 7.192394605218982e-16 -6.3611093629270335e-15 0.0 0.0 -27.108947766400036 -4.301047288670652 -71.83780081473633 31.792794617660455 -1.1800127461680962e-14 5.0140625461794555e-15 0.0 0.0 1.5902773407317584e-15 -0.03589334971300366 -0.24842320502445706 0.19684225031535973 2.2399553991849563 14.800107057515085 -7.646795695235992 -19.726971760969455 -1.6898195856447509 -1.4418158634219043e-15 1.5902773407317584e-15 0.0 0.0
-0.21416765451431274 -0.29618799686431885 0.43783146142959595 -61.30346239837844 81.06085372944821 64.40223782927103 0.15833423830826188 1.1048011968425275 -11.209850989793273 -0.7791713828169713 14.301808046580483 14.082811789173446 17.9138381399174 -0.764709393510981 -1.9631734441473306e-15 -7.951386703658792e-16 0.0 0.0 -1.8822336975378065e-07 -1.3135047908278513e-06 4.9983886929511735e-06 0.1259106409460667 -2.6938364080384025e-14 -2.753387742659667e-15 69.31389971921087 -8.857004804153089 77.1993853416767 -34.89589673811411 3.0342165337858224e-15 9.536551304744514e-16 0.0 0.0 -7.951386703658792e-16 -39.34873577480888 -5.964699899253495 -67.33734453669747 26.976132939365442 3.897403831600856e-15 -4.205592662063971e-15 0.0 0.0 3.1805546814635168e-15 0.048543862417511366 0.3387404844271972 0.35456379793668497 2.245694420464878 14.675690091312367 -7.78915757406921 -19.99141659261967 -2.025163599280119 2.7847246763823316e-15 1.5902773407317584e-15 0.0 0.0
